<?xml version="1.0" encoding="UTF-8" standalone="no"?>
<!-- Created with Inkscape (http://www.inkscape.org/) -->

<svg
   xmlns:dc="http://purl.org/dc/elements/1.1/"
   xmlns:cc="http://creativecommons.org/ns#"
   xmlns:rdf="http://www.w3.org/1999/02/22-rdf-syntax-ns#"
   xmlns:svg="http://www.w3.org/2000/svg"
   xmlns="http://www.w3.org/2000/svg"
   xmlns:sodipodi="http://sodipodi.sourceforge.net/DTD/sodipodi-0.dtd"
   xmlns:inkscape="http://www.inkscape.org/namespaces/inkscape"
   version="1.1"
   id="svg10"
   width="666.66669"
   height="525.33331"
   viewBox="0 0 666.66669 525.33331"
   sodipodi:docname="bling.svg"
   inkscape:version="0.92.3 (2405546, 2018-03-11)">
  <metadata
     id="metadata16">
    <rdf:RDF>
      <cc:Work
         rdf:about="">
        <dc:format>image/svg+xml</dc:format>
        <dc:type
           rdf:resource="http://purl.org/dc/dcmitype/StillImage" />
        <dc:title></dc:title>
      </cc:Work>
    </rdf:RDF>
  </metadata>
  <defs
     id="defs14" />
  <sodipodi:namedview
     pagecolor="#ffffff"
     bordercolor="#666666"
     borderopacity="1"
     objecttolerance="10"
     gridtolerance="10"
     guidetolerance="10"
     inkscape:pageopacity="0"
     inkscape:pageshadow="2"
     inkscape:window-width="2560"
     inkscape:window-height="1377"
     id="namedview12"
     showgrid="false"
     inkscape:zoom="2.2994925"
     inkscape:cx="333.33334"
     inkscape:cy="262.66666"
     inkscape:window-x="-8"
     inkscape:window-y="-8"
     inkscape:window-maximized="1"
     inkscape:current-layer="svg10" />
  <path
     style="fill:#000000;stroke-width:1.33333337"
     d="m 352.73185,520.53639 c -2.1229,-3.11666 -7.34753,-11.66666 -11.61028,-19 -16.66501,-28.66927 -59.47904,-99.5007 -69.46516,-114.92294 -38.344,-59.21729 -58.74152,-91.24987 -61.60671,-96.74817 -5.71533,-10.96768 -4.65789,-12.41508 22.45411,-30.73494 28.65804,-19.36453 39.69793,-25.55248 50.73732,-28.43865 13.01823,-3.40354 105.44068,-3.45111 139.78316,-0.0719 26.57203,2.61457 26.96461,2.7366 42.77263,13.29413 18.26698,12.19978 28,22.33053 28,29.1442 0,2.65036 -5.48461,11.00757 -19.73693,30.07429 -24.47705,32.74535 -33.83529,45.94647 -75.90212,107.07069 -18.42132,26.76667 -34.47896,49.86667 -35.68364,51.33333 -7.51098,9.14443 7.03428,-71.34153 29.51725,-163.33332 5.63211,-23.0444 9.39136,-35.913 10.80867,-37 2.62646,-2.01436 9.51592,-2.16368 14.38666,-0.31183 3.06415,1.16499 3.47838,1.95906 2.95598,5.66667 -0.76618,5.43768 -25.07204,98.29958 -30.55087,116.72125 -2.24799,7.55852 -3.79579,14.03422 -3.43953,14.39048 0.35624,0.35624 5.81113,-7.9785 12.12196,-18.52164 12.3308,-20.60036 49.19408,-74.63359 63.17368,-92.59835 4.88276,-6.27468 8.35695,-11.99316 8.10048,-13.33333 -0.48199,-2.51872 -13.71669,-12.95618 -25.35367,-19.995 -6.64146,-4.0172 -8.37413,-4.40773 -25.09927,-5.65734 -9.88092,-0.73831 -39.86532,-1.7136 -66.63198,-2.16736 -40.72798,-0.69046 -49.0651,-0.51875 -51.10917,1.0526 -2.34025,1.79905 -2.21653,2.62848 2.95594,19.81571 21.38849,71.07035 38.61877,148.09952 33.79459,151.08102 -2.24554,1.38782 -6.24409,-8.89174 -24.1925,-62.19458 -28.15021,-83.59993 -34.54419,-100.94837 -37.20572,-100.94837 -1.62951,0 -23.95428,13.05715 -34.55311,20.20916 -11.41921,7.7056 -11.81552,9.24263 -5.576,21.62591 2.26272,4.4907 17.46467,28.26493 33.78212,52.83159 16.31744,24.56667 31.95615,48.56667 34.7527,53.33334 13.7933,23.51051 47.82783,77.4387 51.66612,81.8657 l 4.35169,5.01913 4.60294,-7.77574 c 11.88049,-20.06976 57.79793,-87.91876 76.09645,-112.44243 32.16167,-43.10305 114.56459,-144.55983 127.5867,-157.08831 6.47504,-6.22959 6.78732,-7.76072 1.14537,-5.61565 -5.71452,2.17265 -18.16668,1.58644 -24.09812,-1.13448 -6.16809,-2.82948 -12.03242,-8.36995 -14.96004,-14.13384 -1.12517,-2.21524 -2.17092,-4.17917 -2.32389,-4.36429 -0.15297,-0.18512 -3.52667,1.45401 -7.4971,3.64251 -11.72841,6.4647 -24.60526,4.60815 -29.37058,-4.23458 -2.20562,-4.09284 -1.89391,-16.82011 0.70596,-28.82519 2.6862,-12.40376 2.74601,-22.0604 0.14997,-24.21491 -1.58128,-1.31234 -2.94064,-1.0359 -7,1.42353 -22.63765,13.71536 -42.29437,38.97256 -50.95619,65.47437 -3.03714,9.29249 -7.22998,16.5441 -10.87509,18.80876 -3.49202,2.1695 -8.96752,-0.0751 -11.33063,-4.64484 -3.22204,-6.23075 -1.97944,-12.27208 7.89079,-38.36381 4.84169,-12.79892 8.55012,-23.52371 8.24096,-23.83288 -0.30917,-0.30916 -7.21946,5.7348 -15.35619,13.43104 -18.11475,17.13405 -25.43739,21.45034 -36.60595,21.57722 -13.91312,0.15807 -20.07622,-5.94441 -22.79553,-22.5713 l -0.87227,-5.33334 -6.80048,8 c -12.29022,14.45808 -34.78411,36.15815 -41.57708,40.10981 -8.6298,5.02022 -22.17977,5.56198 -28.23083,1.12875 -8.45953,-6.1978 -10.61058,-19.63761 -6.5444,-40.88965 5.73978,-29.99909 34.61762,-87.528326 66.33658,-132.153023 14.96963,-21.060414 23.70633,-31.5702456 27.41669,-32.9809206 7.01039,-2.66534204 17.41996,3.704705 15.90239,9.7313236 -0.42293,1.67955 -4.90692,8.453726 -9.96443,15.053726 -12.3412,16.105151 -35.4159,50.279348 -44.90201,66.500958 -16.10047,27.532416 -33.0877,68.015586 -35.97424,85.732106 -0.74896,4.5968 -0.42839,6.04495 1.84036,8.3137 2.32284,2.32283 3.26165,2.51291 6.07666,1.23031 1.83116,-0.83433 16.69,-17.12475 33.01964,-36.20095 16.32965,-19.07619 31.69475,-36.96775 34.14469,-39.75902 5.51233,-6.28036 11.98896,-7.92848 18.13976,-4.61606 2.29226,1.23447 4.92513,3.45723 5.8508,4.93946 1.46828,2.35108 1.17176,3.27729 -2.32375,7.25843 -4.81564,5.48472 -8.10075,15.43475 -9.07735,27.49373 -0.86498,10.68075 0.0972,15.22052 3.62648,17.10931 3.7302,1.99633 8.30664,-0.72613 17.9963,-10.70577 16.21676,-16.7021 43.54763,-41.35134 48.84848,-44.05564 3.20652,-1.63584 6.70256,-2.47371 8.47037,-2.03002 4.13702,1.03833 6.26439,6.85634 4.79838,13.12278 -1.33586,5.71009 -0.30115,6.23383 5.01028,2.53607 11.42956,-7.95716 21.2284,-12.15456 30.27309,-12.9677 8.33076,-0.74896 9.73516,-0.51283 13.91331,2.33931 2.55598,1.7448 5.39713,4.65435 6.31368,6.46567 2.40518,4.75328 2.14698,28.82693 -0.43074,40.16029 -1.36354,5.99504 -1.67385,9.85602 -0.85772,10.67216 0.81614,0.81613 8.14618,-3.34231 20.26099,-11.49435 33.23831,-22.36604 52.2463,-29.77167 79.62999,-31.02433 14.79998,-0.67702 14.92014,-0.65809 18.49039,2.91216 l 3.59361,3.59361 -3.82372,4.07605 c -4.6268,4.93212 -16.91089,13.06439 -19.73427,13.06439 -1.12125,0 -2.41512,-1.5 -2.87526,-3.33333 -0.46014,-1.83334 -1.29614,-3.33334 -1.85778,-3.33334 -2.82154,0 -32.41645,10.79018 -39.63202,14.44967 -17.01554,8.62969 -21.39091,15.81409 -14.50016,23.80932 3.03262,3.51869 3.8455,3.73761 13.67849,3.6838 17.44633,-0.0955 27.76485,-6.29413 63.09728,-37.90459 14.31146,-12.80386 23.04938,-18.60567 28.12668,-18.67558 2.87851,-0.0396 7.03608,4.75476 6.14251,7.08336 -0.39649,1.03325 -14.12081,16.8056 -30.49848,35.04966 -91.59135,102.02908 -149.36166,172.01223 -194.68133,235.83769 -15.81525,22.27323 -49.16593,72.6381 -61.62159,93.05847 -16.75488,27.46871 -19.09645,29.21359 -25.8662,19.27485 z M 182.33422,242.96269 c -1.41016,-0.98772 -5.50585,-6.0627 -9.10155,-11.27774 -3.59569,-5.21504 -7.1593,-9.48188 -7.91914,-9.48188 -0.75984,0 -8.13852,4.5 -16.3971,10 -8.25856,5.5 -15.86776,10 -16.90933,10 -2.61602,0 -10.14437,-7.94017 -11.08618,-11.69264 -1.04544,-4.16537 1.35211,-6.5577 17.77612,-17.73736 7.57159,-5.1539 13.76654,-9.88648 13.76654,-10.51684 0,-0.63034 -7.11076,-12.15017 -15.8017,-25.59962 -24.57202,-38.02587 -56.198301,-92.232976 -56.198301,-96.323296 0,-2.66234 9.82953,-7.42619 17.42495,-8.44495 6.194461,-0.830851 4.764091,-2.981742 31.243221,46.981376 10.88212,20.53334 23.08398,43.03334 27.11523,50 4.03125,6.96667 8.78043,15.21667 10.55373,18.33334 1.77331,3.11666 3.9229,5.66511 4.77686,5.66323 0.85397,-0.001 4.85268,-1.99102 8.88601,-4.42031 4.03333,-2.4293 13.68461,-7.82143 21.44729,-11.98252 7.76267,-4.16108 15.12714,-8.68516 16.36548,-10.05351 5.9582,-6.58375 -4.45674,-10.91119 -30.91917,-12.84704 -26.81597,-1.96172 -42.83268,-12.07151 -39.06221,-24.65619 2.03794,-6.80206 5.3501,-9.46766 24.25405,-19.51949 47.45272,-25.232126 89.91271,-53.864014 99.80346,-67.300095 9.74525,-13.238446 -1.63635,-20.191083 -33.12852,-20.237104 -31.65299,-0.04625 -80.1065,11.681399 -132.09372,31.971877 -36.009851,14.054555 -81.333331,37.643236 -81.333331,42.330076 0,0.87243 1.5,2.99542 3.33333,4.717746 4.27275,4.01403 4.2201,7.10892 -0.17981,10.56989 -7.90851,6.22083 -22.89773,0.98236 -28.03908995,-9.79918 C -2.139611,95.242564 -0.52546095,90.688564 7.586309,82.808364 19.799229,70.944078 55.564639,51.121823 91.457529,36.324426 111.38746,28.108004 151.52771,14.608708 166.84058,10.97286 213.12125,-0.01589764 271.8156,-2.2900776 288.56805,6.2563874 c 9.72363,4.9606206 18.5622,16.2412876 18.5622,23.6909136 0,1.373091 -1.80788,6.114418 -4.01751,10.536284 -7.884,15.777259 -36.03893,39.146669 -73.54791,61.046895 -39.36382,22.98321 -44.9912,26.46261 -45.67312,28.23968 -1.01348,2.64109 3.14632,3.86097 19.23854,5.64177 27.67204,3.06224 35.74188,5.80115 42.25609,14.34172 2.89428,3.7946 3.74391,6.35251 3.74391,11.27159 0,10.5014 -6.95896,16.34514 -46.66667,39.18801 -12.46667,7.17177 -22.83148,13.1682 -23.03291,13.3254 -0.20144,0.15718 1.44808,4.121 3.66562,8.80845 2.70161,5.71075 4.0322,10.58624 4.0329,14.77728 0.001,7.08136 -1.10218,8.42483 -4.79497,5.83831 z M 391.97844,74.057624 c -3.1618,-4.514101 -2.73049,-11.760951 1.02927,-17.293939 3.81409,-5.612937 17.28257,-13.227263 23.39684,-13.227263 11.40489,0 17.33403,10.629383 10.66112,19.11261 -3.41187,4.33747 -20.38451,12.843702 -27.54315,13.803872 -4.55701,0.61123 -5.69027,0.25142 -7.54408,-2.39528 z"
     id="path20"
     inkscape:connector-curvature="0" />
</svg>
